<svg xmlns="http://www.w3.org/2000/svg" viewBox="212 308 874 578" width="874" height="578">
  <!-- A -->
  <rect x="348" y="318" width="104" height="109" fill="#a989ec"/>
  <rect x="244" y="427" width="104" height="112" fill="#64cdaf"/>
  <rect x="452" y="427" width="104" height="112" fill="#f76463"/>
  <rect x="244" y="539" width="104" height="113" fill="#fec132"/>
  <rect x="452" y="539" width="104" height="113" fill="#7a59d0"/>
  <rect x="222" y="652" width="104" height="113" fill="#7a59d0"/>
  <rect x="326" y="652" width="148" height="113" fill="#fd8b0f"/>
  <rect x="474" y="652" width="104" height="113" fill="#64cdaf"/>
  <rect x="222" y="765" width="104" height="111" fill="#64cdaf"/>
  <rect x="474" y="765" width="104" height="111" fill="#f76463"/>
  <!-- C -->
  <rect x="660" y="427" width="104" height="112" fill="#fec132"/>
  <rect x="660" y="539" width="104" height="113" fill="#64cdaf"/>
  <rect x="660" y="652" width="104" height="113" fill="#a989ec"/>
  <rect x="764" y="318" width="104" height="109" fill="#7a59d0"/>
  <rect x="868" y="318" width="104" height="109" fill="#3bacb6"/>
  <rect x="972" y="318" width="104" height="109" fill="#f76463"/>
  <rect x="764" y="765" width="104" height="111" fill="#f76463"/>
  <rect x="868" y="765" width="104" height="111" fill="#fec132"/>
  <rect x="972" y="765" width="104" height="111" fill="#7a59d0"/>
</svg>
